<?xml version="1.0" encoding="iso-8859-1"?>
<!-- Uploaded to: SVG Repo, www.svgrepo.com, Generator: SVG Repo Mixer Tools -->
<svg height="800px" width="800px" version="1.1" id="Capa_1" xmlns="http://www.w3.org/2000/svg" xmlns:xlink="http://www.w3.org/1999/xlink" 
	 viewBox="0 0 300.22 300.22" xml:space="preserve">
<g>
	<g>
		<path style="fill:#010002;" d="M294.781,253.052h-15.686v-13.766c0-3.002-2.437-5.439-5.439-5.439h-10.568V93.258h10.568
			c3.002,0,5.439-2.437,5.439-5.439V74.053h8.648c3.002,0,5.439-2.437,5.439-5.439V40.445c0-26.586-93.59-33.608-143.075-33.608
			S7.038,13.864,7.038,40.445v28.169c0,3.002,2.437,5.439,5.439,5.439h8.643v13.766c0,3.002,2.437,5.439,5.439,5.439h10.568v140.594
			H26.564c-3.002,0-5.439,2.437-5.439,5.439v13.766H5.439c-3.002,0-5.439,2.437-5.439,5.439v14.724
			c0,11.493,14.898,20.163,34.652,20.163h230.915c19.755,0,34.652-8.664,34.652-20.163v-14.729
			C300.22,255.489,297.783,253.052,294.781,253.052z M224.677,231.644V93.323h27.533v138.321H224.677z M213.799,233.847h-9.605
			V93.258h9.605V233.847z M106.899,93.323h27.533v138.321h-27.533V93.323z M145.31,93.258h9.6v140.594h-9.6
			C145.31,233.853,145.31,93.258,145.31,93.258z M193.321,231.644h-27.533V93.323h27.533V231.644z M17.916,63.169v-22.73
			c0-4.629,34.505-22.73,132.191-22.73c97.691,0,132.196,18.107,132.196,22.73v22.73h-8.648H26.564H17.916z M32.003,82.38v-8.327
			h236.219v8.327H32.003z M75.538,93.323v138.321H48.005V93.323H75.538z M86.416,93.258h9.605v140.594h-9.605V93.258z
			 M32.003,244.725h236.213v8.327H32.003V244.725z M289.342,273.215c0,3.693-9.48,9.284-23.774,9.284H34.652
			c-14.294,0-23.774-5.586-23.774-9.284v-9.285h15.686h247.091h15.686V273.215z"/>
	</g>
</g>
</svg>